# xmcd
#
# Track frame offsets: 
#        182
#        17370
#        35215
#        57215
#        77130
#        98607
#        118785
#        134200
#        152872
#        168705
#
# Disc length: 2512 seconds
#
# Revision: 12
# Processed by: cddbd v1.5.2PL0 Copyright (c) Steve Scherf et al.
# Submitted via: ExactAudioCopy v1.0b3
#
DISCID=8609ce0a
DTITLE=Robert Cray Band, The - Don't Be Afraid Of The Dark
DYEAR=1988
DGENRE=Blues
TTITLE0=Don't Be Afraid Of The Dark
TTITLE1=Don't You Even Care?
TTITLE2=Your Secret's Safe With Me
TTITLE3=I Can't Go Home
TTITLE4=Night Patrol
TTITLE5=Acting This Way
TTITLE6=Gotta Change The Rules
TTITLE7=Across The Line
TTITLE8=At Last
TTITLE9=Laugh Out Loud
EXTD=
EXTT0=
EXTT1=
EXTT2=
EXTT3=
EXTT4=
EXTT5=
EXTT6=
EXTT7=
EXTT8=
EXTT9=
PLAYORDER=
